<svg xmlns="http://www.w3.org/2000/svg">
    <symbol id="icon-clear" viewBox="0 0 64 64">
        <path
            d="M37,13.68a18.07,18.07,0,0,1,11.42,8.88A18.17,18.17,0,0,1,50.32,37,18.85,18.85,0,0,1,27.16,50.32,18.68,18.68,0,0,1,15.58,41.6a18.26,18.26,0,0,1-1.9-14.44,18.36,18.36,0,0,1,8.88-11.58A18.17,18.17,0,0,1,37,13.68Z" />
        <path
            d="M30.33,5.75A1.76,1.76,0,0,1,32.08,4a1.74,1.74,0,0,1,1.59,1.75V8.44A1.71,1.71,0,0,1,32.08,10a1.74,1.74,0,0,1-1.75-1.59ZM17.48,10A1.57,1.57,0,0,1,18,7.81a1.79,1.79,0,0,1,2.38.63l1.27,2.22A1.79,1.79,0,0,1,21,13a1.6,1.6,0,0,1-2.22-.63Zm-9,10.31A1.79,1.79,0,0,1,7.81,18,1.57,1.57,0,0,1,10,17.48l2.38,1.27A1.6,1.6,0,0,1,13,21a1.79,1.79,0,0,1-2.38.64ZM5.75,33.67A1.74,1.74,0,0,1,4,32.08a1.76,1.76,0,0,1,1.75-1.75H8.44A1.74,1.74,0,0,1,10,32.08a1.71,1.71,0,0,1-1.59,1.59Zm4.28,13A1.6,1.6,0,0,1,7.81,46a1.79,1.79,0,0,1,.63-2.38l2.22-1.27A1.79,1.79,0,0,1,13,43a1.6,1.6,0,0,1-.63,2.22Zm10.31,9a1.75,1.75,0,0,1-2.38.47A1.54,1.54,0,0,1,17.48,54l1.27-2.38a1.68,1.68,0,0,1,2.86,1.75Zm13.33,2.69A1.71,1.71,0,0,1,32.08,60a1.74,1.74,0,0,1-1.75-1.59V55.72A1.76,1.76,0,0,1,32.08,54a1.74,1.74,0,0,1,1.59,1.75Zm13-4.44A1.56,1.56,0,0,1,46,56.19a1.75,1.75,0,0,1-2.38-.47l-1.27-2.38a1.68,1.68,0,0,1,2.86-1.75Zm9-10.31A1.75,1.75,0,0,1,56.19,46a1.56,1.56,0,0,1-2.22.63l-2.38-1.42a1.68,1.68,0,0,1,1.75-2.86Zm2.69-13.33A1.74,1.74,0,0,1,60,32.08a1.71,1.71,0,0,1-1.59,1.59H55.72A1.74,1.74,0,0,1,54,32.08a1.76,1.76,0,0,1,1.75-1.75ZM54,17.48a1.54,1.54,0,0,1,2.22.48,1.75,1.75,0,0,1-.47,2.38l-2.38,1.27a1.68,1.68,0,0,1-1.75-2.86Zm-10.31-9A1.79,1.79,0,0,1,46,7.81,1.6,1.6,0,0,1,46.67,10l-1.42,2.38A1.6,1.6,0,0,1,43,13a1.79,1.79,0,0,1-.64-2.38Z" />
    </symbol>
    <symbol id="icon-clouds" viewBox="0 0 64 64">
        <path
            d="M33.61,17.38a19,19,0,0,1,6,3.84,17.4,17.4,0,0,1,4.33,7.43,6.92,6.92,0,0,1,2.23.38,7.7,7.7,0,0,1,2.23.74,10.12,10.12,0,0,1,5.46,6.07,10.52,10.52,0,0,1-.5,8.18,1.27,1.27,0,0,1-1.73.62A1.38,1.38,0,0,1,51,42.9a7.75,7.75,0,0,0,.37-6.19,8.23,8.23,0,0,0-4.09-4.59,11,11,0,0,0-1.74-.62,2.8,2.8,0,0,0-1-.12,12.84,12.84,0,0,1,.13,2.23,18.91,18.91,0,0,1-.25,2.6,18.06,18.06,0,0,1-.5,2.6,1.56,1.56,0,0,1-1.73.87A1.58,1.58,0,0,1,41.29,38a10.87,10.87,0,0,0,.5-2.11A14.1,14.1,0,0,0,42,33.61,15.34,15.34,0,0,0,37.7,23.08a14.82,14.82,0,0,0-5.82-3.59L31,19.24l-1.86-.37c-.62,0-1.24-.13-2-.13a14.69,14.69,0,0,0-10,4.09,14.5,14.5,0,0,0-4.71,9.79v1.11l-1.23.13A7.34,7.34,0,0,0,6.11,36a7.33,7.33,0,0,0,0,10.29,7.3,7.3,0,0,0,5.2,2.1c14.62,0,29.36-.24,44,0a4.72,4.72,0,0,0,3.35-1.48A4.83,4.83,0,0,0,60,43.52a5.77,5.77,0,0,0-.62-2.6,4.51,4.51,0,0,0-2-1.73l-1.12-.62.62-1.12a17.1,17.1,0,0,0,.87-2.23A15.62,15.62,0,0,0,58,32.87a10,10,0,0,0-3-7.19,10.19,10.19,0,0,0-7.18-3H46.5L45.13,23,45,21.59a6.87,6.87,0,0,0-2.36-4.21,6.27,6.27,0,0,0-4.46-1.73,6.13,6.13,0,0,0-3.34.86,7.8,7.8,0,0,0-1.24.87Z" />
    </symbol>
    <symbol id="icon-rain" viewBox="0 0 64 64">
        <path
            d="M41.54,46.33a1.29,1.29,0,0,1,1.61-.75A1.35,1.35,0,0,1,44,47.32l-1.61,4.21a1.44,1.44,0,0,1-1.74.74,1.37,1.37,0,0,1-.74-1.73Z" />
        <path
            d="M33.12,46.33a1.28,1.28,0,1,1,2.35,1l-2.85,7.8a1.29,1.29,0,0,1-1.74.75,1.31,1.31,0,0,1-.74-1.62Z" />
        <path
            d="M15.15,46.33a1.44,1.44,0,0,1,1.73-.75,1.39,1.39,0,0,1,.75,1.74l-2.85,7.8a1.33,1.33,0,0,1-1.74.75,1.3,1.3,0,0,1-.74-1.62Z" />
        <path
            d="M49.35,46.33A1.29,1.29,0,0,1,51,45.58a1.34,1.34,0,0,1,.86,1.74l-3,7.8a1.28,1.28,0,0,1-1.73.75,1.3,1.3,0,0,1-.75-1.62Z" />
        <path
            d="M33.61,9.78a18.83,18.83,0,0,1,6,3.84,17.28,17.28,0,0,1,4.33,7.43,6.91,6.91,0,0,1,2.23.37,7.72,7.72,0,0,1,2.23.75,10.07,10.07,0,0,1,5.46,6.07,10.49,10.49,0,0,1-.5,8.17,1.27,1.27,0,0,1-1.73.62A1.37,1.37,0,0,1,51,35.3a7.77,7.77,0,0,0,.37-6.2,8.21,8.21,0,0,0-4.09-4.58,9.31,9.31,0,0,0-1.74-.62,2.8,2.8,0,0,0-1-.12A12.78,12.78,0,0,1,44.64,26a19.21,19.21,0,0,1-.25,2.6,18.33,18.33,0,0,1-.5,2.6,1.37,1.37,0,1,1-2.6-.87,10.76,10.76,0,0,0,.5-2.1A14.23,14.23,0,0,0,42,26,15.32,15.32,0,0,0,37.7,15.48a15,15,0,0,0-5.82-3.6L31,11.63l-1.86-.37c-.62,0-1.24-.12-2-.12a14.69,14.69,0,0,0-10,4.09A14.48,14.48,0,0,0,12.42,25v1.11l-1.23.12a7.3,7.3,0,0,0-5.08,2.11,7.31,7.31,0,0,0,0,10.28,7.27,7.27,0,0,0,5.2,2.11c14.62,0,29.36-.25,44,0a4.69,4.69,0,0,0,3.35-1.49A4.79,4.79,0,0,0,60,35.92a5.77,5.77,0,0,0-.62-2.6,4.47,4.47,0,0,0-2-1.74L56.28,31l.62-1.11a17.67,17.67,0,0,0,.87-2.23A15.75,15.75,0,0,0,58,25.26a10,10,0,0,0-3-7.18,10.2,10.2,0,0,0-7.18-3H46.5l-1.37.25L45,14a6.87,6.87,0,0,0-2.36-4.21A6.24,6.24,0,0,0,38.19,8a6.13,6.13,0,0,0-3.34.87,7.2,7.2,0,0,0-1.24.87Z" />
        <path d="M24,46.33a1.28,1.28,0,1,1,2.35,1l-1.61,4.21a1.28,1.28,0,1,1-2.35-1Z" />
    </symbol>
    <symbol id="icon-snow" viewBox="0 0 64 64">
        <path
            d="M33.61,12.55a19,19,0,0,1,6,3.84,17.34,17.34,0,0,1,4.33,7.43,7.19,7.19,0,0,1,2.23.37,8,8,0,0,1,2.23.75A10.12,10.12,0,0,1,53.81,31a10.52,10.52,0,0,1-.5,8.18,1.27,1.27,0,0,1-1.73.62A1.38,1.38,0,0,1,51,38.07a7.75,7.75,0,0,0,.37-6.19,8.19,8.19,0,0,0-4.09-4.59,10.08,10.08,0,0,0-1.74-.62,2.8,2.8,0,0,0-1-.12,12.84,12.84,0,0,1,.13,2.23,19.06,19.06,0,0,1-.25,2.6,18.06,18.06,0,0,1-.5,2.6c-.12.13-.24.37-.37.5a3.65,3.65,0,0,1,1.36,1.73,4.06,4.06,0,0,1,4.22.87A3.85,3.85,0,0,1,50,41.29a3.72,3.72,0,0,1,2.11,2.23h3.22A4.72,4.72,0,0,0,58.64,42,4.83,4.83,0,0,0,60,38.69a5.77,5.77,0,0,0-.62-2.6,4.6,4.6,0,0,0-2-1.74l-1.12-.62.62-1.11a17.1,17.1,0,0,0,.87-2.23A15.62,15.62,0,0,0,58,28a10,10,0,0,0-3-7.19,10.19,10.19,0,0,0-7.18-3H46.5l-1.37.24L45,16.76a6.87,6.87,0,0,0-2.36-4.21,6.24,6.24,0,0,0-4.46-1.74,6.13,6.13,0,0,0-3.34.87,7.8,7.8,0,0,0-1.24.87Zm7.68,21.31v-.74a10.87,10.87,0,0,0,.5-2.11A14.1,14.1,0,0,0,42,28.78,15.32,15.32,0,0,0,37.7,18.25a15,15,0,0,0-5.82-3.6L31,14.41,29.15,14c-.62,0-1.24-.13-2-.13a14.69,14.69,0,0,0-10,4.09,14.5,14.5,0,0,0-4.71,9.79V28.9L11.19,29a7.29,7.29,0,0,0-5.08,2.1,7.33,7.33,0,0,0,0,10.29,7.3,7.3,0,0,0,5.2,2.1h.74a3.75,3.75,0,0,1,2.11-2.23,3.91,3.91,0,0,1,5.08-5.08,3.92,3.92,0,0,1,7.18,0,3.91,3.91,0,0,1,5.08,5.08c.25.13.38.13.62.25.13-.12.38-.12.5-.25a4.07,4.07,0,0,1,.87-4.21,4.14,4.14,0,0,1,4.21-.87,4,4,0,0,1,3.59-2.35Z" />
        <path
            d="M15.77,46.12a1.17,1.17,0,0,1-1.24-1.24,1.28,1.28,0,0,1,1.24-1.36h4L16.88,40.8a1.36,1.36,0,0,1,0-1.86,1.34,1.34,0,0,1,1.86,0l2.85,2.72V37.82a1.28,1.28,0,0,1,1.24-1.36,1.37,1.37,0,0,1,1.36,1.36v3.84l2.73-2.72a1.34,1.34,0,0,1,1.86,0,1.36,1.36,0,0,1,0,1.86l-2.73,2.72h3.84a1.38,1.38,0,0,1,1.37,1.36,1.27,1.27,0,0,1-1.37,1.24H26.05L28.78,49a1.36,1.36,0,0,1,0,1.86,1.34,1.34,0,0,1-1.86,0L24.19,48v4a1.27,1.27,0,0,1-1.36,1.24A1.18,1.18,0,0,1,21.59,52V48l-2.85,2.85a1.34,1.34,0,0,1-1.86,0,1.36,1.36,0,0,1,0-1.86l2.85-2.85Zm29.61-7.18a1.34,1.34,0,0,1,1.86,0,1.36,1.36,0,0,1,0,1.86l-2.73,2.72h3.84a1.38,1.38,0,0,1,1.37,1.36,1.27,1.27,0,0,1-1.37,1.24H44.51L47.24,49a1.36,1.36,0,0,1,0,1.86,1.34,1.34,0,0,1-1.86,0L42.65,48v4a1.27,1.27,0,0,1-1.36,1.24A1.18,1.18,0,0,1,40.05,52V48L37.2,50.83a1.33,1.33,0,0,1-1.85,0,1.34,1.34,0,0,1,0-1.86l2.84-2.85h-4A1.17,1.17,0,0,1,33,44.88a1.28,1.28,0,0,1,1.24-1.36h4L35.35,40.8a1.34,1.34,0,0,1,0-1.86,1.33,1.33,0,0,1,1.85,0l2.85,2.72V37.82a1.28,1.28,0,0,1,1.24-1.36,1.37,1.37,0,0,1,1.36,1.36v3.84Z" />
    </symbol>
    <symbol id="icon-thunderstorm" viewBox="0 0 64 64">
        <path d="M15.15,46.33a1.34,1.34,0,1,1,2.48,1l-3,7.8a1.25,1.25,0,1,1-2.35-.87Z" />
        <path
            d="M33,46.33a1.44,1.44,0,0,1,1.74-.75,1.38,1.38,0,0,1,.74,1.74l-2.85,7.8a1.33,1.33,0,0,1-1.74.75,1.31,1.31,0,0,1-.74-1.62Z" />
        <path d="M41.54,46.33a1.28,1.28,0,1,1,2.35,1l-1.61,4.21a1.28,1.28,0,1,1-2.35-1Z" />
        <path
            d="M49.35,46.33a1.28,1.28,0,1,1,2.35,1l-2.85,7.8a1.28,1.28,0,0,1-1.73.75,1.3,1.3,0,0,1-.75-1.62Z" />
        <path
            d="M33.61,9.78a18.83,18.83,0,0,1,6,3.84,17.28,17.28,0,0,1,4.33,7.43,6.91,6.91,0,0,1,2.23.37,7.72,7.72,0,0,1,2.23.75,10.07,10.07,0,0,1,5.46,6.07,10.49,10.49,0,0,1-.5,8.17,1.27,1.27,0,0,1-1.73.62A1.37,1.37,0,0,1,51,35.3a7.77,7.77,0,0,0,.37-6.2,8.21,8.21,0,0,0-4.09-4.58,9.31,9.31,0,0,0-1.74-.62,2.8,2.8,0,0,0-1-.12A12.78,12.78,0,0,1,44.64,26a19.21,19.21,0,0,1-.25,2.6,18.33,18.33,0,0,1-.5,2.6,1.37,1.37,0,1,1-2.6-.87,10.76,10.76,0,0,0,.5-2.1A14.23,14.23,0,0,0,42,26,15.32,15.32,0,0,0,37.7,15.48a15,15,0,0,0-5.82-3.6L31,11.63l-1.86-.37c-.62,0-1.24-.12-2-.12a14.69,14.69,0,0,0-10,4.09A14.48,14.48,0,0,0,12.42,25v1.11l-1.23.12a7.3,7.3,0,0,0-5.08,2.11,7.31,7.31,0,0,0,0,10.28,7.27,7.27,0,0,0,5.2,2.11H23.2l1.74-4.34H19.73A7.33,7.33,0,0,1,18.12,36a3.89,3.89,0,0,1-1.85-5.2L23,16a3.93,3.93,0,1,1,7.18,3.22l-4.21,9.29h4.71a3.91,3.91,0,0,1,4,4,3.81,3.81,0,0,1-.37,1.61l-2.6,6.57c7.93,0,15.86,0,23.66.12a4.69,4.69,0,0,0,3.35-1.49A4.79,4.79,0,0,0,60,35.92a5.77,5.77,0,0,0-.62-2.6,4.47,4.47,0,0,0-2-1.74L56.28,31l.62-1.11a17.67,17.67,0,0,0,.87-2.23A15.75,15.75,0,0,0,58,25.26a10,10,0,0,0-3-7.18,10.2,10.2,0,0,0-7.18-3H46.5l-1.37.25L45,14a6.87,6.87,0,0,0-2.36-4.21A6.24,6.24,0,0,0,38.19,8a6.13,6.13,0,0,0-3.34.87,7.2,7.2,0,0,0-1.24.87Z" />
        <path
            d="M25.31,17.09A1.32,1.32,0,0,1,27,16.34a1.3,1.3,0,0,1,.62,1.74l-5.82,13h8.8A1.37,1.37,0,0,1,32,32.45a5.26,5.26,0,0,0-.12.62L24.69,51.53a1.28,1.28,0,0,1-1.61.74,1.34,1.34,0,0,1-.87-1.73l6.57-16.85h-9a.9.9,0,0,1-.49-.13,1.23,1.23,0,0,1-.62-1.73Z" />
    </symbol>
</svg>